<?xml version="1.0" standalone="no"?>
<!DOCTYPE svg PUBLIC "-//W3C//DTD SVG 20010904//EN"
 "http://www.w3.org/TR/2001/REC-SVG-20010904/DTD/svg10.dtd">
<svg version="1.0" xmlns="http://www.w3.org/2000/svg"
 width="512.000000pt" height="512.000000pt" viewBox="0 0 512.000000 512.000000"
 preserveAspectRatio="xMidYMid meet">
<metadata>
Created by potrace 1.11, written by Peter Selinger 2001-2013
</metadata>
<g transform="translate(0.000000,512.000000) scale(0.100000,-0.100000)"
fill="#000000" stroke="none">
<path d="M1295 4749 c-258 -88 -590 -200 -738 -249 -147 -50 -279 -98 -294
-107 -56 -37 -53 84 -53 -2085 0 -1991 0 -2003 20 -2036 24 -39 81 -66 125
-59 24 4 276 97 370 137 11 5 49 20 85 33 128 49 747 289 855 331 l109 44 211
-73 c214 -75 522 -183 675 -236 47 -17 141 -50 210 -74 69 -24 203 -71 299
-104 l175 -61 300 101 c166 56 500 168 744 250 244 82 455 157 469 166 56 37
53 -83 52 2085 0 1878 -2 2005 -18 2033 -9 17 -34 39 -56 49 -51 26 -76 20
-350 -88 -121 -48 -265 -104 -320 -125 -55 -21 -109 -42 -120 -46 -11 -5 -23
-9 -27 -10 -5 -2 -9 -3 -10 -4 -2 -1 -151 -59 -333 -130 l-330 -128 -200 69
c-110 39 -218 76 -240 83 -22 8 -98 34 -170 60 -71 26 -141 51 -155 55 -14 4
-110 38 -215 75 -104 37 -201 70 -215 75 -14 4 -104 36 -200 69 -96 34 -177
61 -180 60 -3 0 -216 -72 -475 -160z"/>
</g>
</svg>
